<svg xmlns="http://www.w3.org/2000/svg" width="829" height="239" viewBox="0 0 829 239" fill="none"><g clip-path="url(#clip0_231_831)"><path d="M262.484 51.3111L262.454 69.6176C251.799 54.993 236.46 48.5276 216.554 48.5276C198.57 48.5276 184.487 54.9194 171.748 68.1448C159.01 81.3849 152.833 96.9815 152.833 116.334C152.833 135.686 159.512 151.444 172.251 164.773C184.989 178.101 198.57 184.272 216.554 184.272C232.692 184.272 252.538 178.44 262.469 166.216C262.883 187.115 254.489 200.782 237.613 207.026C218.047 214.287 193.235 207.615 182.078 192.475L161.404 213.094C175.398 229.545 197.727 239 220.456 239C259.706 239 291.493 218.808 291.493 160.929V51.2964H262.484V51.3111ZM251.253 146.275C243.406 154.213 233.549 158.175 221.682 158.175C209.816 158.175 199.959 154.213 192.112 146.275C184.265 138.351 180.334 128.381 180.334 116.363C180.334 104.345 184.265 94.3747 192.112 86.4365C199.959 78.513 209.816 74.5513 221.682 74.5513C233.549 74.5513 243.406 78.513 251.253 86.4365C259.1 94.36 263.031 104.331 263.031 116.363C263.031 128.396 259.1 138.351 251.253 146.275Z" fill="#0068FF"></path><path d="M109.637 51.3112V69.8681C99.1147 55.5381 84.0562 48.3657 64.4756 48.3657C46.6831 48.3657 31.4915 54.9195 18.9008 68.0124C6.29535 81.1052 0 97.2173 0 116.334C0 135.45 6.29535 151.341 18.9008 164.523C31.5063 177.704 46.6979 184.287 64.4756 184.287C80.1992 184.287 99.6024 178.646 109.637 166.216V181.459H138.675V51.3112H109.637ZM98.3906 146.26C90.5288 154.184 80.672 158.145 68.7907 158.145C56.9093 158.145 47.0525 154.184 39.1907 146.26C31.3289 138.337 27.3981 128.351 27.3981 116.334C27.3981 104.316 31.3289 94.3454 39.1907 86.4072C47.0525 78.4837 56.9093 74.522 68.7907 74.522C80.672 74.522 90.5288 78.4837 98.3906 86.4072C106.252 94.3307 110.183 104.301 110.183 116.334C110.183 128.351 106.238 138.337 98.3906 146.26Z" fill="#0068FF"></path><path d="M322.57 37.526C332.959 37.526 341.382 29.1313 341.382 18.763C341.382 8.39475 332.959 0 322.57 0C312.182 0 303.773 8.39475 303.773 18.763C303.773 29.1313 312.182 37.526 322.57 37.526Z" fill="#00CD5C"></path><path d="M337.082 51.0752H308.044V181.223H337.082V51.0752Z" fill="#0068FF"></path><path d="M472.993 126.569C472.993 161.43 447.708 184.037 416.749 184.037C397.375 184.037 382.242 175.082 373.272 160.958H372.799V182.858H360.741V9.51416H373.272V91.0022H373.745C383.203 75.9358 399.266 67.217 417.221 67.217C450.073 67.217 472.993 93.3586 472.993 126.569ZM460.225 126.805C460.225 97.8358 440.142 79.2348 415.803 79.2348C391.464 79.2348 372.799 100.192 372.799 126.805C372.799 153.418 392.882 172.255 416.039 172.255C442.27 172.255 460.225 152.475 460.225 126.805Z" fill="#0068FF"></path><path d="M593.979 68.395V182.858H582.156V160.958H581.683C572.699 175.082 557.581 184.036 538.207 184.036C507.248 184.036 481.963 161.429 481.963 126.569C481.963 91.7089 504.883 67.2168 537.734 67.2168C555.689 67.2168 571.768 75.9356 581.211 91.0019H581.683V68.395H593.979ZM582.171 126.805C582.171 100.192 564.216 79.2345 539.168 79.2345C514.119 79.2345 494.746 97.8355 494.746 126.805C494.746 152.475 512.701 172.254 538.931 172.254C562.073 172.254 582.171 153.889 582.171 126.805Z" fill="#0068FF"></path><path d="M713.073 115.023V182.844H700.541V116.658C700.541 86.746 687.552 78.9698 671.473 78.9698C646.189 78.9698 629.416 97.5708 629.416 126.069V182.829H616.884V68.366H629.416V90.7372H629.652C639.347 75.6709 655.646 67.1877 674.311 67.1877C697.246 67.2172 713.073 80.8697 713.073 115.023Z" fill="#0068FF"></path><path d="M784.923 116.672L828.872 182.858H814.463L776.41 126.569H775.938L747.579 157.659V182.858H735.047V9.51416H747.579V139.986H747.815L813.045 68.3952H828.872L784.923 116.672Z" fill="#0068FF"></path></g><defs><clipPath id="clip0_231_831"><rect width="828.872" height="239" fill="white"></rect></clipPath></defs></svg>